<?xml version="1.0" encoding="UTF-8" ?>
<!DOCTYPE svg PUBLIC "-//W3C//DTD SVG 1.1//EN" "http://www.w3.org/Graphics/SVG/1.1/DTD/svg11.dtd">
<svg width="144pt" height="90pt" viewBox="0 0 144 90" version="1.1" xmlns="http://www.w3.org/2000/svg">
<path fill="#ffffff" d=" M 0.00 0.00 L 144.00 0.00 L 144.00 90.00 L 0.00 90.00 L 0.00 0.00 Z" />
<path fill="#000000" d=" M 63.62 18.62 C 66.21 13.64 73.77 12.38 77.90 16.16 C 79.45 17.62 79.89 19.80 80.65 21.71 C 79.99 21.94 78.66 22.40 78.00 22.64 C 77.09 20.78 76.44 18.42 74.22 17.73 C 70.34 15.69 65.90 19.16 65.06 23.02 C 63.96 27.32 64.17 33.01 68.19 35.75 C 71.02 38.10 75.17 36.82 77.68 34.61 C 77.91 33.12 77.86 31.60 77.93 30.09 C 75.91 30.06 73.88 30.05 71.86 30.05 C 71.86 29.25 71.84 27.64 71.84 26.83 C 74.80 26.85 77.76 26.84 80.72 26.84 C 80.69 30.13 80.70 33.42 80.69 36.71 C 77.40 39.59 72.80 41.26 68.52 39.72 C 64.65 38.61 62.51 34.66 61.79 30.95 C 61.44 26.80 61.33 22.29 63.62 18.62 Z" />
<path fill="#000000" d=" M 8.14 14.60 C 13.18 14.60 18.21 14.62 23.25 14.59 C 23.23 15.40 23.20 17.03 23.18 17.85 C 19.19 17.66 15.20 17.65 11.21 17.86 C 11.20 20.24 11.20 22.62 11.22 25.00 C 14.93 25.00 18.65 25.00 22.37 24.99 C 22.40 25.82 22.45 27.47 22.48 28.30 C 18.73 28.27 14.97 28.25 11.22 28.32 C 11.20 31.09 11.19 33.87 11.22 36.64 C 15.42 36.71 19.62 36.66 23.81 36.69 C 23.76 37.52 23.65 39.17 23.60 39.99 C 18.46 40.00 13.33 40.02 8.19 39.97 C 8.14 31.52 8.23 23.06 8.14 14.60 Z" />
<path fill="#000000" d=" M 27.16 14.54 C 27.85 14.55 29.23 14.58 29.92 14.60 C 29.92 21.95 29.88 29.29 29.94 36.64 C 33.27 36.69 36.60 36.69 39.93 36.66 C 39.92 37.50 39.90 39.16 39.90 39.99 C 35.66 40.00 31.42 40.00 27.18 40.00 C 27.17 31.51 27.20 23.02 27.16 14.54 Z" />
<path fill="#000000" d=" M 43.14 14.60 C 48.18 14.60 53.21 14.62 58.25 14.59 C 58.23 15.40 58.20 17.03 58.18 17.85 C 54.19 17.66 50.20 17.65 46.21 17.86 C 46.20 20.24 46.20 22.62 46.22 25.00 C 49.93 25.00 53.65 25.00 57.37 24.99 C 57.40 25.82 57.45 27.47 57.48 28.30 C 53.73 28.27 49.97 28.25 46.22 28.32 C 46.20 31.09 46.19 33.87 46.22 36.65 C 50.42 36.71 54.62 36.66 58.81 36.69 C 58.76 37.52 58.65 39.17 58.60 39.99 C 53.46 40.00 48.33 40.02 43.19 39.97 C 43.14 31.52 43.23 23.06 43.14 14.60 Z" />
<path fill="#000000" d=" M 81.78 39.93 C 84.48 31.49 87.07 23.01 89.78 14.57 C 90.58 14.58 92.19 14.59 92.99 14.60 C 95.74 23.08 98.75 31.47 101.39 39.98 C 100.55 39.99 98.88 40.00 98.05 40.01 C 97.23 37.39 96.40 34.78 95.55 32.18 C 92.81 32.20 90.06 32.19 87.32 32.19 C 86.50 34.77 85.74 37.37 84.99 39.97 C 84.19 39.96 82.58 39.94 81.78 39.93 Z" />
<path fill="#000000" d=" M 103.14 14.59 C 103.89 14.58 105.39 14.56 106.14 14.55 C 109.65 20.78 112.90 27.17 116.58 33.30 C 116.77 27.06 116.65 20.82 116.65 14.58 C 117.35 14.57 118.75 14.57 119.44 14.57 C 119.37 23.06 119.47 31.56 119.38 40.05 C 118.65 40.02 117.19 39.97 116.45 39.95 C 112.94 33.79 109.98 27.29 105.97 21.44 C 105.83 27.62 105.97 33.81 105.89 39.99 C 105.21 39.99 103.86 39.98 103.18 39.98 C 103.16 31.52 103.23 23.05 103.14 14.59 Z" />
<path fill="#000000" d=" M 122.61 14.58 C 128.15 14.62 133.70 14.61 139.25 14.59 C 139.23 15.39 139.19 17.00 139.17 17.80 C 136.92 17.75 134.68 17.74 132.43 17.78 C 132.37 25.20 132.48 32.61 132.37 40.03 C 131.64 40.01 130.18 39.99 129.45 39.97 C 129.38 32.55 129.48 25.13 129.40 17.71 C 127.17 17.74 124.94 17.78 122.71 17.86 C 122.69 17.04 122.63 15.40 122.61 14.58 Z" />
<path fill="#ffffff" d=" M 91.28 18.62 C 92.52 22.13 93.60 25.69 94.69 29.24 C 92.52 29.35 90.34 29.29 88.18 29.14 C 89.27 25.65 90.34 22.15 91.28 18.62 Z" />
<path fill="#000000" d=" M 5.63 55.64 C 8.14 51.56 14.07 50.73 18.10 52.87 C 20.56 54.01 21.23 56.83 22.20 59.11 C 20.82 59.52 19.41 59.87 18.01 60.26 C 16.87 58.15 14.94 55.48 12.17 56.33 C 6.30 58.64 6.21 67.85 10.42 71.73 C 12.66 74.05 15.80 72.20 17.94 70.77 C 17.90 70.08 17.82 68.69 17.78 67.99 C 16.33 68.00 14.89 68.01 13.45 68.02 C 13.43 66.54 13.40 65.05 13.37 63.57 C 16.32 63.61 19.27 63.61 22.22 63.59 C 22.20 66.99 22.19 70.39 22.23 73.79 C 19.38 76.15 15.76 77.75 11.99 77.19 C 7.17 76.88 4.01 72.17 3.51 67.72 C 3.20 63.63 3.12 59.13 5.63 55.64 Z" />
<path fill="#000000" d=" M 23.81 76.88 C 26.49 68.63 29.09 60.35 31.75 52.09 C 33.22 52.15 34.69 52.17 36.16 52.14 C 38.86 60.41 41.61 68.66 44.30 76.94 C 42.75 76.98 41.21 77.01 39.67 77.02 C 39.03 75.10 38.41 73.17 37.78 71.25 C 35.23 71.26 32.68 71.25 30.13 71.26 C 29.54 73.18 28.97 75.12 28.35 77.04 C 26.84 77.02 25.32 76.97 23.81 76.88 Z" />
<path fill="#000000" d=" M 45.87 52.16 C 50.32 52.41 54.90 51.65 59.26 52.85 C 62.38 54.15 62.77 58.05 62.36 60.98 C 62.33 63.55 60.00 64.95 58.19 66.32 C 60.83 69.48 62.51 73.27 64.30 76.94 C 62.58 76.97 60.86 77.01 59.14 77.02 C 57.30 73.83 55.83 70.40 53.57 67.47 C 52.58 67.10 51.18 65.94 50.29 67.04 C 50.06 70.36 50.25 73.69 50.19 77.02 C 48.75 77.02 47.31 76.98 45.87 76.91 C 45.85 68.66 45.85 60.41 45.87 52.16 Z" />
<path fill="#000000" d=" M 65.86 52.16 C 70.08 52.43 74.58 51.51 78.60 53.19 C 82.40 55.78 82.84 60.83 82.89 65.02 C 82.75 68.88 82.14 73.52 78.60 75.82 C 74.62 77.68 70.11 76.83 65.88 76.99 C 65.84 68.72 65.87 60.44 65.86 52.16 Z" />
<path fill="#000000" d=" M 85.87 52.15 C 90.90 52.23 95.93 52.19 100.97 52.19 C 100.92 53.66 100.90 55.13 100.91 56.60 C 97.33 56.54 93.75 56.49 90.19 56.69 C 90.18 58.39 90.22 60.09 90.24 61.80 C 93.57 61.81 96.89 61.81 100.22 61.79 C 100.21 63.23 100.21 64.68 100.20 66.12 C 96.87 66.12 93.54 66.12 90.20 66.13 C 90.22 68.26 90.19 70.39 90.24 72.51 C 93.98 72.57 97.72 72.54 101.46 72.53 C 101.44 74.02 101.40 75.51 101.35 76.99 C 96.19 76.99 91.03 77.05 85.87 76.94 C 85.85 68.68 85.85 60.42 85.87 52.15 Z" />
<path fill="#000000" d=" M 105.13 52.21 C 106.45 52.20 107.77 52.16 109.09 52.09 C 111.84 57.21 114.13 62.58 117.12 67.57 C 117.24 62.44 117.18 57.31 117.14 52.19 C 118.41 52.18 119.67 52.18 120.93 52.17 C 120.88 60.44 120.94 68.71 120.91 76.99 C 119.56 76.99 118.22 77.00 116.87 77.00 C 114.28 72.03 111.80 67.00 109.30 61.98 C 108.72 66.96 108.95 71.98 108.90 76.98 C 107.65 76.99 106.41 77.00 105.17 77.00 C 105.16 68.74 105.23 60.48 105.13 52.21 Z" />
<path fill="#000000" d=" M 125.89 63.11 C 122.91 58.97 125.32 51.76 130.91 51.84 C 135.68 50.81 139.99 54.56 140.04 59.33 C 138.64 59.43 137.24 59.54 135.85 59.66 C 135.09 58.35 134.60 56.51 132.89 56.17 C 130.96 55.57 129.57 57.23 128.16 58.20 C 130.60 62.01 136.03 61.06 138.85 64.31 C 141.64 68.26 140.80 75.35 135.67 76.92 C 132.84 77.40 129.56 77.71 127.13 75.86 C 124.81 74.29 124.43 71.32 123.76 68.83 C 125.13 68.59 126.50 68.31 127.86 68.00 C 128.55 69.79 129.03 72.11 131.17 72.69 C 133.50 73.73 137.43 71.05 135.82 68.49 C 133.07 65.77 128.14 66.53 125.89 63.11 Z" />
<path fill="#ffffff" d=" M 50.19 56.66 C 52.70 56.48 55.26 56.48 57.69 57.27 C 57.97 58.76 58.46 60.35 57.49 61.71 C 55.28 62.96 52.66 62.53 50.24 62.64 C 50.21 60.64 50.19 58.65 50.19 56.66 Z" />
<path fill="#ffffff" d=" M 70.23 56.56 C 73.15 56.43 77.21 56.49 78.05 60.02 C 78.71 63.46 78.95 67.33 77.46 70.59 C 75.96 73.03 72.66 72.46 70.23 72.55 C 70.19 67.22 70.19 61.89 70.23 56.56 Z" />
<path fill="#ffffff" d=" M 33.89 59.07 C 34.89 61.61 35.67 64.25 36.35 66.89 C 34.74 66.91 33.12 66.92 31.50 66.92 C 32.15 64.26 32.96 61.64 33.89 59.07 Z" />
</svg>
