<?xml version="1.0" standalone="yes"?>
<svg width="41" height="43">
<path style="fill:#ffffff; stroke:none;" d="M0 0L0 43L41 43L41 0L0 0z"/>
<path style="fill:#d8f2fb; stroke:none;" d="M30 1C31.2484 1.6848 31.5484 1.74879 33 2C31.7516 1.3152 31.4516 1.25121 30 1z"/>
<path style="fill:#9edff4; stroke:none;" d="M28.1088 2.74306C19.3757 6.44735 25.8 20.1131 34.8912 16.2569C43.6244 12.5526 37.2 -1.11312 28.1088 2.74306z"/>
<path style="fill:#e2f6fc; stroke:none;" d="M29 4C30.769 4.77894 32.0359 4.91241 34 5C32.231 4.22106 30.9641 4.08759 29 4z"/>
<path style="fill:#ffffff; stroke:none;" d="M28.3187 6.02855C22.8365 9.66876 29.904 16.1437 34.6813 12.9715C40.1635 9.33124 33.096 2.85633 28.3187 6.02855z"/>
<path style="fill:#d6f1fa; stroke:none;" d="M23 7L23 12C23.8299 9.96953 23.8299 9.03048 23 7z"/>
<path style="fill:#d9f3fb; stroke:none;" d="M39 8L39 11C39.6961 9.4463 39.6961 9.5537 39 8z"/>
<path style="fill:#e1e1d6; stroke:none;" d="M9.00077 10.7577C-3.17848 15.0774 3.09914 34.7181 14.9954 29.9869C26.719 25.3243 20.8538 6.5537 9.00077 10.7577z"/>
<path style="fill:#ffffff; stroke:none;" d="M9.1088 14.7469C1.63911 17.802 6.43043 29.0481 13.9807 26.3812C22.5975 23.3376 16.9696 11.5319 9.1088 14.7469z"/>
<path style="fill:#e0f5fc; stroke:none;" d="M29 14C30.769 14.7789 32.0359 14.9124 34 15C32.231 14.2211 30.9641 14.0876 29 14z"/>
<path style="fill:#d8f2fb; stroke:none;" d="M30 17C31.2484 17.6848 31.5484 17.7488 33 18C31.7516 17.3152 31.4516 17.2512 30 17z"/>
<path style="fill:#818179; stroke:none;" d="M22.6667 30.3333C22.2222 30.7778 23.2778 30.7222 23.3333 30.6667C23.7778 30.2222 22.7222 30.2778 22.6667 30.3333z"/>
<path style="fill:#616258; stroke:none;" d="M24.0039 30.9167C17.2327 31.5152 18.3486 42.2675 24.9606 41.4182C31.3748 40.5943 30.6713 30.3273 24.0039 30.9167z"/>
<path style="fill:#afb0ab; stroke:none;" d="M25.6667 30.3333C25.2222 30.7778 26.2778 30.7222 26.3333 30.6667C26.7778 30.2222 25.7222 30.2778 25.6667 30.3333z"/>
<path style="fill:#b3b3ae; stroke:none;" d="M20 31L21 32L20 31M19 32L20 33L19 32z"/>
<path style="fill:#b7b7b2; stroke:none;" d="M22 32L23 33L22 32z"/>
<path style="fill:#ffffff; stroke:none;" d="M23.2986 32.8904C19.8651 33.9875 21.1633 40.0972 24.9097 39.1682C28.9996 38.1541 27.335 31.6007 23.2986 32.8904z"/>
<path style="fill:#93948d; stroke:none;" d="M26 32L27 33L26 32z"/>
<path style="fill:#a9aaa5; stroke:none;" d="M27 33L28 34L27 33z"/>
<path style="fill:#91928b; stroke:none;" d="M29 33L30 34L29 33z"/>
<path style="fill:#9e9f99; stroke:none;" d="M18 34L18 38C18.7102 36.2405 18.7102 35.7595 18 34z"/>
<path style="fill:#a4a49f; stroke:none;" d="M20 34L21 35L20 34z"/>
<path style="fill:#cfcfcc; stroke:none;" d="M20 35L20 38C20.6961 36.4463 20.6961 36.5537 20 35z"/>
<path style="fill:#95968f; stroke:none;" d="M28.3333 35.6667C28.2778 35.7222 28.2222 36.7778 28.6667 36.3333C28.7222 36.2778 28.7778 35.2222 28.3333 35.6667z"/>
<path style="fill:#d6d6d4; stroke:none;" d="M30.3333 35.6667C30.2778 35.7222 30.2222 36.7778 30.6667 36.3333C30.7222 36.2778 30.7778 35.2222 30.3333 35.6667z"/>
<path style="fill:#adaea9; stroke:none;" d="M27 38L28 39L27 38z"/>
<path style="fill:#8f9089; stroke:none;" d="M29 38L30 39L29 38z"/>
<path style="fill:#b1b1ac; stroke:none;" d="M19 39L20 40L19 39z"/>
<path style="fill:#bbbcb7; stroke:none;" d="M22 39L23 40L22 39z"/>
<path style="fill:#95968f; stroke:none;" d="M26 39L27 40L26 39z"/>
<path style="fill:#a4a49f; stroke:none;" d="M20 40L21 41L20 40z"/>
<path style="fill:#d4d5d2; stroke:none;" d="M28 40L29 41L28 40z"/>
<path style="fill:#abaca7; stroke:none;" d="M26 41L27 42L26 41z"/>
</svg>
